<svg xmlns="http://www.w3.org/2000/svg" width="256" height="256" viewBox="0 0 256 256" role="img" aria-labelledby="title desc">
  <title id="title">Yue Fei's Legacy map placeholder</title>
  <desc id="desc">Placeholder artwork for new Age of Empires IV Yue Fei's Legacy maps.</desc>
  <defs>
    <linearGradient id="bg" x1="32" y1="20" x2="224" y2="236" gradientUnits="userSpaceOnUse">
      <stop stop-color="#1f2937"/>
      <stop offset="1" stop-color="#0f172a"/>
    </linearGradient>
    <linearGradient id="land" x1="52" y1="78" x2="212" y2="196" gradientUnits="userSpaceOnUse">
      <stop stop-color="#7c5f2d"/>
      <stop offset="0.52" stop-color="#3f6f46"/>
      <stop offset="1" stop-color="#244c6f"/>
    </linearGradient>
  </defs>
  <rect width="256" height="256" rx="32" fill="url(#bg)"/>
  <path d="M42 74c34-22 66-18 96-6 28 11 54 11 82-3v139c-29 15-57 15-86 3-30-12-60-16-92 5V74Z" fill="url(#land)" stroke="#d6b46a" stroke-width="6" stroke-linejoin="round"/>
  <path d="M86 65v130M138 70v137M190 70v129" stroke="#d6b46a" stroke-width="4" stroke-linecap="round" opacity="0.45"/>
  <path d="M59 122c24 9 47 8 70-3 27-13 51-14 74-3M62 165c24 9 48 7 72-4 26-12 48-12 69-1" stroke="#f8e7b0" stroke-width="5" stroke-linecap="round" opacity="0.35"/>
  <circle cx="177" cy="105" r="12" fill="#f59e0b" stroke="#fef3c7" stroke-width="4"/>
  <path d="M74 87l14 22 20-9-12 25 18 15-27-1-11 24-8-25-27-3 23-15-5-26 15 13Z" fill="#f8e7b0" opacity="0.9"/>
  <text x="128" y="230" text-anchor="middle" fill="#f8e7b0" font-family="Arial, sans-serif" font-size="18" font-weight="700" letter-spacing="1.5">MAP ART COMING SOON</text>
</svg>
